[hls @ 000001e9b89a4f80] Opening 'https://tv.vodu.me:1995/kass/kass2/tracks-v1a1/2025/08/04/19/55/26-10400.ts' for reading
[hls @ 000001e9b89a4f80] Opening 'https://tv.vodu.me:1995/kass/kass2/tracks-v1a1/2025/08/04/19/55/37-10420.ts' for reading
Input #0, hls, from 'https://tv.vodu.me:1995/kass/kass2/tracks-v1a1/mono.m3u8':
  Duration: N/A, start: 81795.763011, bitrate: N/A
  Program 0 
    Metadata:
      variant_bitrate : 0
  Stream #0:0: Video: h264 (High) ([27][0][0][0] / 0x001B), yuv420p(tv, bt709), 1920x1080 [SAR 1:1 DAR 16:9], 24 fps, 50 tbr, 90k tbn, start 81795.763011
    Metadata:
      variant_bitrate : 0
  Stream #0:1: Audio: aac (LC) ([15][0][0][0] / 0x000F), 44100 Hz, stereo, fltp, start 81795.784100
    Metadata:
      variant_bitrate : 0
Stream mapping:
  Stream #0:0 -> #0:0 (copy)
  Stream #0:1 -> #0:1 (copy)
Output #0, hls, to 'live\channel_3\stream.m3u8':
  Metadata:
    encoder         : Lavf62.1.103
  Stream #0:0: Video: h264 (High) ([27][0][0][0] / 0x001B), yuv420p(tv, bt709), 1920x1080 [SAR 1:1 DAR 16:9], q=2-31, 24 fps, 50 tbr, 90k tbn
    Metadata:
      variant_bitrate : 0
  Stream #0:1: Audio: aac (LC) ([15][0][0][0] / 0x000F), 44100 Hz, stereo, fltp
    Metadata:
      variant_bitrate : 0
Press [q] to stop, [?] for help
[vist#0:0/h264 @ 000001e9b8f7d480] Resumed reading at pts 0.000 with rate 1.050 after a lag of 0.500s
frame=   13 fps=0.0 q=-1.0 size=N/A time=00:00:00.54 bitrate=N/A speed=1.06x elapsed=0:00:00.51    frame=   26 fps= 25 q=-1.0 size=N/A time=00:00:01.08 bitrate=N/A speed=1.05x elapsed=0:00:01.02    frame=   39 fps= 25 q=-1.0 size=N/A time=00:00:01.62 bitrate=N/A speed=1.05x elapsed=0:00:01.54    frame=   52 fps= 25 q=-1.0 size=N/A time=00:00:02.16 bitrate=N/A speed=1.05x elapsed=0:00:02.05    frame=   65 fps= 25 q=-1.0 size=N/A time=00:00:02.70 bitrate=N/A speed=1.05x elapsed=0:00:02.57    frame=   78 fps= 25 q=-1.0 size=N/A time=00:00:03.24 bitrate=N/A speed=1.05x elapsed=0:00:03.09    frame=   92 fps= 26 q=-1.0 size=N/A time=00:00:03.78 bitrate=N/A speed=1.05x elapsed=0:00:03.60    frame=  105 fps= 25 q=-1.0 size=N/A time=00:00:04.32 bitrate=N/A speed=1.05x elapsed=0:00:04.12    frame=  117 fps= 25 q=-1.0 size=N/A time=00:00:04.86 bitrate=N/A speed=1.05x elapsed=0:00:04.64    frame=  130 fps= 25 q=-1.0 size=N/A time=00:00:05.40 bitrate=N/A speed=1.05x elapsed=0:00:05.15    frame=  143 fps= 25 q=-1.0 size=N/A time=00:00:05.94 bitrate=N/A speed=1.05x elapsed=0:00:05.66    frame=  155 fps= 25 q=-1.0 size=N/A time=00:00:06.44 bitrate=N/A speed=1.04x elapsed=0:00:06.18    frame=  169 fps= 25 q=-1.0 size=N/A time=00:00:07.04 bitrate=N/A speed=1.05x elapsed=0:00:06.69    frame=  182 fps= 25 q=-1.0 size=N/A time=00:00:07.58 bitrate=N/A speed=1.05x elapsed=0:00:07.21    frame=  195 fps= 25 q=-1.0 size=N/A time=00:00:08.12 bitrate=N/A speed=1.05x elapsed=0:00:07.73    frame=  208 fps= 25 q=-1.0 size=N/A time=00:00:08.66 bitrate=N/A speed=1.05x elapsed=0:00:08.24    frame=  221 fps= 25 q=-1.0 size=N/A time=00:00:09.20 bitrate=N/A speed=1.05x elapsed=0:00:08.76    frame=  234 fps= 25 q=-1.0 size=N/A time=00:00:09.74 bitrate=N/A speed=1.05x elapsed=0:00:09.27    frame=  248 fps= 25 q=-1.0 size=N/A time=00:00:10.28 bitrate=N/A speed=1.05x elapsed=0:00:09.79    [https @ 000001e9b8a6a200] Opening 'https://tv.vodu.me:1995/kass/kass2/tracks-v1a1/2025/08/04/19/55/47-10420.ts' for reading
[hls @ 000001e9b96a4f40] Opening 'live\channel_3\stream0.ts' for writing
[hls @ 000001e9b96a4f40] Opening 'live\channel_3\stream.m3u8.tmp' for writing
frame=  260 fps= 25 q=-1.0 size=N/A time=00:00:10.78 bitrate=N/A speed=1.05x elapsed=0:00:10.30    frame=  272 fps= 25 q=-1.0 size=N/A time=00:00:11.32 bitrate=N/A speed=1.05x elapsed=0:00:10.82    frame=  285 fps= 25 q=-1.0 size=N/A time=00:00:11.86 bitrate=N/A speed=1.05x elapsed=0:00:11.34    frame=  297 fps= 25 q=-1.0 size=N/A time=00:00:12.36 bitrate=N/A speed=1.04x elapsed=0:00:11.85    frame=  310 fps= 25 q=-1.0 size=N/A time=00:00:12.86 bitrate=N/A speed=1.04x elapsed=0:00:12.37    frame=  322 fps= 25 q=-1.0 size=N/A time=00:00:13.36 bitrate=N/A speed=1.04x elapsed=0:00:12.88    frame=  334 fps= 25 q=-1.0 size=N/A time=00:00:13.90 bitrate=N/A speed=1.04x elapsed=0:00:13.40    frame=  346 fps= 25 q=-1.0 size=N/A time=00:00:14.40 bitrate=N/A speed=1.03x elapsed=0:00:13.91    frame=  358 fps= 25 q=-1.0 size=N/A time=00:00:14.90 bitrate=N/A speed=1.03x elapsed=0:00:14.43    frame=  371 fps= 25 q=-1.0 size=N/A time=00:00:15.44 bitrate=N/A speed=1.03x elapsed=0:00:14.94    frame=  383 fps= 25 q=-1.0 size=N/A time=00:00:15.94 bitrate=N/A speed=1.03x elapsed=0:00:15.46    frame=  396 fps= 25 q=-1.0 size=N/A time=00:00:16.50 bitrate=N/A speed=1.03x elapsed=0:00:15.98    frame=  408 fps= 25 q=-1.0 size=N/A time=00:00:17.00 bitrate=N/A speed=1.03x elapsed=0:00:16.49    frame=  421 fps= 25 q=-1.0 size=N/A time=00:00:17.50 bitrate=N/A speed=1.03x elapsed=0:00:17.01    frame=  433 fps= 25 q=-1.0 size=N/A time=00:00:18.00 bitrate=N/A speed=1.03x elapsed=0:00:17.52    frame=  445 fps= 25 q=-1.0 size=N/A time=00:00:18.54 bitrate=N/A speed=1.03x elapsed=0:00:18.04    frame=  458 fps= 25 q=-1.0 size=N/A time=00:00:19.08 bitrate=N/A speed=1.03x elapsed=0:00:18.55    frame=  470 fps= 25 q=-1.0 size=N/A time=00:00:19.58 bitrate=N/A speed=1.03x elapsed=0:00:19.07    frame=  483 fps= 25 q=-1.0 size=N/A time=00:00:20.08 bitrate=N/A speed=1.03x elapsed=0:00:19.59    frame=  495 fps= 25 q=-1.0 size=N/A time=00:00:20.58 bitrate=N/A speed=1.02x elapsed=0:00:20.10    [https @ 000001e9b8f77180] Opening 'https://tv.vodu.me:1995/kass/kass2/tracks-v1a1/2025/08/04/19/55/58-10420.ts' for reading
[hls @ 000001e9b96a4f40] Opening 'live\channel_3\stream1.ts' for writing
[hls @ 000001e9b96a4f40] Opening 'live\channel_3\stream.m3u8.tmp' for writing
frame=  507 fps= 25 q=-1.0 size=N/A time=00:00:21.12 bitrate=N/A speed=1.02x elapsed=0:00:20.62    frame=  520 fps= 25 q=-1.0 size=N/A time=00:00:21.66 bitrate=N/A speed=1.02x elapsed=0:00:21.13    frame=  532 fps= 25 q=-1.0 size=N/A time=00:00:22.16 bitrate=N/A speed=1.02x elapsed=0:00:21.65    frame=  545 fps= 25 q=-1.0 size=N/A time=00:00:22.66 bitrate=N/A speed=1.02x elapsed=0:00:22.16    frame=  557 fps= 25 q=-1.0 size=N/A time=00:00:23.16 bitrate=N/A speed=1.02x elapsed=0:00:22.68    frame=  569 fps= 25 q=-1.0 size=N/A time=00:00:23.70 bitrate=N/A speed=1.02x elapsed=0:00:23.19    frame=  581 fps= 24 q=-1.0 size=N/A time=00:00:24.20 bitrate=N/A speed=1.02x elapsed=0:00:23.71    frame=  594 fps= 25 q=-1.0 size=N/A time=00:00:24.74 bitrate=N/A speed=1.02x elapsed=0:00:24.23    frame=  607 fps= 25 q=-1.0 size=N/A time=00:00:25.24 bitrate=N/A speed=1.02x elapsed=0:00:24.74    frame=  618 fps= 24 q=-1.0 size=N/A time=00:00:25.74 bitrate=N/A speed=1.02x elapsed=0:00:25.26    frame=  631 fps= 24 q=-1.0 size=N/A time=00:00:26.28 bitrate=N/A speed=1.02x elapsed=0:00:25.77    frame=  643 fps= 24 q=-1.0 size=N/A time=00:00:26.78 bitrate=N/A speed=1.02x elapsed=0:00:26.29    frame=  656 fps= 24 q=-1.0 size=N/A time=00:00:27.32 bitrate=N/A speed=1.02x elapsed=0:00:26.80    frame=  669 fps= 24 q=-1.0 size=N/A time=00:00:27.82 bitrate=N/A speed=1.02x elapsed=0:00:27.32    frame=  680 fps= 24 q=-1.0 size=N/A time=00:00:28.32 bitrate=N/A speed=1.02x elapsed=0:00:27.84    frame=  693 fps= 24 q=-1.0 size=N/A time=00:00:28.86 bitrate=N/A speed=1.02x elapsed=0:00:28.35    frame=  705 fps= 24 q=-1.0 size=N/A time=00:00:29.36 bitrate=N/A speed=1.02x elapsed=0:00:28.87    frame=  718 fps= 24 q=-1.0 size=N/A time=00:00:29.90 bitrate=N/A speed=1.02x elapsed=0:00:29.38    frame=  730 fps= 24 q=-1.0 size=N/A time=00:00:30.40 bitrate=N/A speed=1.02x elapsed=0:00:29.90    frame=  742 fps= 24 q=-1.0 size=N/A time=00:00:30.90 bitrate=N/A speed=1.02x elapsed=0:00:30.41    [https @ 000001e9b8a6a200] Opening 'https://tv.vodu.me:1995/kass/kass2/tracks-v1a1/2025/08/04/19/56/08-10420.ts' for reading
[hls @ 000001e9b96a4f40] Opening 'live\channel_3\stream2.ts' for writing
[hls @ 000001e9b96a4f40] Opening 'live\channel_3\stream.m3u8.tmp' for writing
[https @ 000001e9b8e75540] Opening 'https://tv.vodu.me:1995/kass/kass2/tracks-v1a1/mono.m3u8' for reading
frame=  755 fps= 24 q=-1.0 size=N/A time=00:00:31.44 bitrate=N/A speed=1.02x elapsed=0:00:30.93    frame=  767 fps= 24 q=-1.0 size=N/A time=00:00:31.94 bitrate=N/A speed=1.02x elapsed=0:00:31.44    frame=  780 fps= 24 q=-1.0 size=N/A time=00:00:32.44 bitrate=N/A speed=1.01x elapsed=0:00:31.96    frame=  792 fps= 24 q=-1.0 size=N/A time=00:00:32.94 bitrate=N/A speed=1.01x elapsed=0:00:32.48    frame=  804 fps= 24 q=-1.0 size=N/A time=00:00:33.50 bitrate=N/A speed=1.02x elapsed=0:00:32.99    frame=  816 fps= 24 q=-1.0 size=N/A time=00:00:34.00 bitrate=N/A speed=1.01x elapsed=0:00:33.51    frame=  829 fps= 24 q=-1.0 size=N/A time=00:00:34.54 bitrate=N/A speed=1.02x elapsed=0:00:34.02    frame=  842 fps= 24 q=-1.0 size=N/A time=00:00:35.04 bitrate=N/A speed=1.01x elapsed=0:00:34.54    frame=  854 fps= 24 q=-1.0 size=N/A time=00:00:35.54 bitrate=N/A speed=1.01x elapsed=0:00:35.05    frame=  866 fps= 24 q=-1.0 size=N/A time=00:00:36.08 bitrate=N/A speed=1.01x elapsed=0:00:35.57    frame=  878 fps= 24 q=-1.0 size=N/A time=00:00:36.58 bitrate=N/A speed=1.01x elapsed=0:00:36.09    frame=  891 fps= 24 q=-1.0 size=N/A time=00:00:37.12 bitrate=N/A speed=1.01x elapsed=0:00:36.60    frame=  904 fps= 24 q=-1.0 size=N/A time=00:00:37.62 bitrate=N/A speed=1.01x elapsed=0:00:37.12    frame=  915 fps= 24 q=-1.0 size=N/A time=00:00:38.12 bitrate=N/A speed=1.01x elapsed=0:00:37.63    frame=  927 fps= 24 q=-1.0 size=N/A time=00:00:38.62 bitrate=N/A speed=1.01x elapsed=0:00:38.15    frame=  940 fps= 24 q=-1.0 size=N/A time=00:00:39.16 bitrate=N/A speed=1.01x elapsed=0:00:38.66    frame=  953 fps= 24 q=-1.0 size=N/A time=00:00:39.70 bitrate=N/A speed=1.01x elapsed=0:00:39.18    frame=  965 fps= 24 q=-1.0 size=N/A time=00:00:40.20 bitrate=N/A speed=1.01x elapsed=0:00:39.70    frame=  977 fps= 24 q=-1.0 size=N/A time=00:00:40.70 bitrate=N/A speed=1.01x elapsed=0:00:40.21    frame=  990 fps= 24 q=-1.0 size=N/A time=00:00:41.24 bitrate=N/A speed=1.01x elapsed=0:00:40.73    [https @ 000001e9b8f77180] Opening 'https://tv.vodu.me:1995/kass/kass2/tracks-v1a1/2025/08/04/19/56/18-10420.ts' for reading
[hls @ 000001e9b96a4f40] Opening 'live\channel_3\stream3.ts' for writing
[hls @ 000001e9b96a4f40] Opening 'live\channel_3\stream.m3u8.tmp' for writing
frame= 1002 fps= 24 q=-1.0 size=N/A time=00:00:41.74 bitrate=N/A speed=1.01x elapsed=0:00:41.24    frame= 1015 fps= 24 q=-1.0 size=N/A time=00:00:42.28 bitrate=N/A speed=1.01x elapsed=0:00:41.76    frame= 1027 fps= 24 q=-1.0 size=N/A time=00:00:42.78 bitrate=N/A speed=1.01x elapsed=0:00:42.27    frame= 1040 fps= 24 q=-1.0 size=N/A time=00:00:43.28 bitrate=N/A speed=1.01x elapsed=0:00:42.79    frame= 1052 fps= 24 q=-1.0 size=N/A time=00:00:43.82 bitrate=N/A speed=1.01x elapsed=0:00:43.30    frame= 1064 fps= 24 q=-1.0 size=N/A time=00:00:44.32 bitrate=N/A speed=1.01x elapsed=0:00:43.82    frame= 1076 fps= 24 q=-1.0 size=N/A time=00:00:44.82 bitrate=N/A speed=1.01x elapsed=0:00:44.34    frame= 1089 fps= 24 q=-1.0 size=N/A time=00:00:45.36 bitrate=N/A speed=1.01x elapsed=0:00:44.85    frame= 1101 fps= 24 q=-1.0 size=N/A time=00:00:45.86 bitrate=N/A speed=1.01x elapsed=0:00:45.37    frame= 1114 fps= 24 q=-1.0 size=N/A time=00:00:46.40 bitrate=N/A speed=1.01x elapsed=0:00:45.88    frame= 1126 fps= 24 q=-1.0 size=N/A time=00:00:46.90 bitrate=N/A speed=1.01x elapsed=0:00:46.40    frame= 1138 fps= 24 q=-1.0 size=N/A time=00:00:47.40 bitrate=N/A speed=1.01x elapsed=0:00:46.91    frame= 1150 fps= 24 q=-1.0 size=N/A time=00:00:47.90 bitrate=N/A speed=1.01x elapsed=0:00:47.43    frame= 1162 fps= 24 q=-1.0 size=N/A time=00:00:48.40 bitrate=N/A speed=1.01x elapsed=0:00:47.95    frame= 1175 fps= 24 q=-1.0 size=N/A time=00:00:48.94 bitrate=N/A speed=1.01x elapsed=0:00:48.46    frame= 1188 fps= 24 q=-1.0 size=N/A time=00:00:49.50 bitrate=N/A speed=1.01x elapsed=0:00:48.98    frame= 1200 fps= 24 q=-1.0 size=N/A time=00:00:50.00 bitrate=N/A speed=1.01x elapsed=0:00:49.49    frame= 1213 fps= 24 q=-1.0 size=N/A time=00:00:50.50 bitrate=N/A speed=1.01x elapsed=0:00:50.01    frame= 1225 fps= 24 q=-1.0 size=N/A time=00:00:51.00 bitrate=N/A speed=1.01x elapsed=0:00:50.52    frame= 1237 fps= 24 q=-1.0 size=N/A time=00:00:51.54 bitrate=N/A speed=1.01x elapsed=0:00:51.04    [https @ 000001e9b8e75540] Opening 'https://tv.vodu.me:1995/kass/kass2/tracks-v1a1/mono.m3u8' for reading
[https @ 000001e9b8a6a200] Opening 'https://tv.vodu.me:1995/kass/kass2/tracks-v1a1/2025/08/04/19/56/29-10400.ts' for reading
frame= 1249 fps= 24 q=-1.0 size=N/A time=00:00:52.04 bitrate=N/A speed=1.01x elapsed=0:00:51.55    [hls @ 000001e9b96a4f40] Opening 'live\channel_3\stream4.ts' for writing
[hls @ 000001e9b96a4f40] Opening 'live\channel_3\stream.m3u8.tmp' for writing
frame= 1262 fps= 24 q=-1.0 size=N/A time=00:00:52.58 bitrate=N/A speed=1.01x elapsed=0:00:52.07    frame= 1275 fps= 24 q=-1.0 size=N/A time=00:00:53.08 bitrate=N/A speed=1.01x elapsed=0:00:52.59    frame= 1286 fps= 24 q=-1.0 size=N/A time=00:00:53.58 bitrate=N/A speed=1.01x elapsed=0:00:53.10    frame= 1299 fps= 24 q=-1.0 size=N/A time=00:00:54.12 bitrate=N/A speed=1.01x elapsed=0:00:53.62    frame= 1312 fps= 24 q=-1.0 size=N/A time=00:00:54.62 bitrate=N/A speed=1.01x elapsed=0:00:54.13    frame= 1324 fps= 24 q=-1.0 size=N/A time=00:00:55.16 bitrate=N/A speed=1.01x elapsed=0:00:54.65    frame= 1337 fps= 24 q=-1.0 size=N/A time=00:00:55.66 bitrate=N/A speed=1.01x elapsed=0:00:55.16    frame= 1349 fps= 24 q=-1.0 size=N/A time=00:00:56.16 bitrate=N/A speed=1.01x elapsed=0:00:55.68    frame= 1361 fps= 24 q=-1.0 size=N/A time=00:00:56.70 bitrate=N/A speed=1.01x elapsed=0:00:56.19    frame= 1374 fps= 24 q=-1.0 size=N/A time=00:00:57.20 bitrate=N/A speed=1.01x elapsed=0:00:56.71    frame= 1386 fps= 24 q=-1.0 size=N/A time=00:00:57.74 bitrate=N/A speed=1.01x elapsed=0:00:57.23    frame= 1399 fps= 24 q=-1.0 size=N/A time=00:00:58.24 bitrate=N/A speed=1.01x elapsed=0:00:57.74    frame= 1411 fps= 24 q=-1.0 size=N/A time=00:00:58.78 bitrate=N/A speed=1.01x elapsed=0:00:58.26    frame= 1423 fps= 24 q=-1.0 size=N/A time=00:00:59.28 bitrate=N/A speed=1.01x elapsed=0:00:58.77    frame= 1436 fps= 24 q=-1.0 size=N/A time=00:00:59.78 bitrate=N/A speed=1.01x elapsed=0:00:59.29    frame= 1448 fps= 24 q=-1.0 size=N/A time=00:01:00.32 bitrate=N/A speed=1.01x elapsed=0:00:59.80    frame= 1460 fps= 24 q=-1.0 size=N/A time=00:01:00.82 bitrate=N/A speed=1.01x elapsed=0:01:00.32    frame= 1473 fps= 24 q=-1.0 size=N/A time=00:01:01.36 bitrate=N/A speed=1.01x elapsed=0:01:00.84    frame= 1485 fps= 24 q=-1.0 size=N/A time=00:01:01.86 bitrate=N/A speed=1.01x elapsed=0:01:01.35    frame= 1498 fps= 24 q=-1.0 size=N/A time=00:01:02.36 bitrate=N/A speed=1.01x elapsed=0:01:01.87    [https @ 000001e9b8f77180] Opening 'https://tv.vodu.me:1995/kass/kass2/tracks-v1a1/2025/08/04/19/56/39-10420.ts' for reading
[https @ 000001e9b8e75540] Opening 'https://tv.vodu.me:1995/kass/kass2/tracks-v1a1/mono.m3u8' for reading
[hls @ 000001e9b96a4f40] Opening 'live\channel_3\stream5.ts' for writing
[hls @ 000001e9b96a4f40] Opening 'live\channel_3\stream.m3u8.tmp' for writing
frame= 1510 fps= 24 q=-1.0 size=N/A time=00:01:02.90 bitrate=N/A speed=1.01x elapsed=0:01:02.38    frame= 1522 fps= 24 q=-1.0 size=N/A time=00:01:03.40 bitrate=N/A speed=1.01x elapsed=0:01:02.90    frame= 1534 fps= 24 q=-1.0 size=N/A time=00:01:03.90 bitrate=N/A speed=1.01x elapsed=0:01:03.41    frame= 1546 fps= 24 q=-1.0 size=N/A time=00:01:04.40 bitrate=N/A speed=1.01x elapsed=0:01:03.93    frame= 1559 fps= 24 q=-1.0 size=N/A time=00:01:04.94 bitrate=N/A speed=1.01x elapsed=0:01:04.44    frame= 1572 fps= 24 q=-1.0 size=N/A time=00:01:05.44 bitrate=N/A speed=1.01x elapsed=0:01:04.96    frame= 1584 fps= 24 q=-1.0 size=N/A time=00:01:05.94 bitrate=N/A speed=1.01x elapsed=0:01:05.48    frame= 1596 fps= 24 q=-1.0 size=N/A time=00:01:06.50 bitrate=N/A speed=1.01x elapsed=0:01:05.99    frame= 1608 fps= 24 q=-1.0 size=N/A time=00:01:07.00 bitrate=N/A speed=1.01x elapsed=0:01:06.51    frame= 1621 fps= 24 q=-1.0 size=N/A time=00:01:07.54 bitrate=N/A speed=1.01x elapsed=0:01:07.02    frame= 1633 fps= 24 q=-1.0 size=N/A time=00:01:08.04 bitrate=N/A speed=1.01x elapsed=0:01:07.54    frame= 1645 fps= 24 q=-1.0 size=N/A time=00:01:08.54 bitrate=N/A speed=1.01x elapsed=0:01:08.05    frame= 1658 fps= 24 q=-1.0 size=N/A time=00:01:09.08 bitrate=N/A speed=1.01x elapsed=0:01:08.57    frame= 1671 fps= 24 q=-1.0 size=N/A time=00:01:09.58 bitrate=N/A speed=1.01x elapsed=0:01:09.09    frame= 1683 fps= 24 q=-1.0 size=N/A time=00:01:10.12 bitrate=N/A speed=1.01x elapsed=0:01:09.60    frame= 1695 fps= 24 q=-1.0 size=N/A time=00:01:10.62 bitrate=N/A speed=1.01x elapsed=0:01:10.12    frame= 1708 fps= 24 q=-1.0 size=N/A time=00:01:11.12 bitrate=N/A speed=1.01x elapsed=0:01:10.63    frame= 1720 fps= 24 q=-1.0 size=N/A time=00:01:11.66 bitrate=N/A speed=1.01x elapsed=0:01:11.15    frame= 1733 fps= 24 q=-1.0 size=N/A time=00:01:12.16 bitrate=N/A speed=1.01x elapsed=0:01:11.66    frame= 1744 fps= 24 q=-1.0 size=N/A time=00:01:12.66 bitrate=N/A speed=1.01x elapsed=0:01:12.18    [https @ 000001e9b8a6a200] Opening 'https://tv.vodu.me:1995/kass/kass2/tracks-v1a1/2025/08/04/19/56/50-10420.ts' for reading
[hls @ 000001e9b96a4f40] Opening 'live\channel_3\stream6.ts' for writing
[hls @ 000001e9b96a4f40] Opening 'live\channel_3\stream.m3u8.tmp' for writing
[https @ 000001e9b8e75540] Opening 'https://tv.vodu.me:1995/kass/kass2/tracks-v1a1/mono.m3u8' for reading
frame= 1757 fps= 24 q=-1.0 size=N/A time=00:01:13.20 bitrate=N/A speed=1.01x elapsed=0:01:12.69    frame= 1770 fps= 24 q=-1.0 size=N/A time=00:01:13.74 bitrate=N/A speed=1.01x elapsed=0:01:13.21    frame= 1782 fps= 24 q=-1.0 size=N/A time=00:01:14.24 bitrate=N/A speed=1.01x elapsed=0:01:13.73    frame= 1795 fps= 24 q=-1.0 size=N/A time=00:01:14.74 bitrate=N/A speed=1.01x elapsed=0:01:14.24    frame= 1807 fps= 24 q=-1.0 size=N/A time=00:01:15.24 bitrate=N/A speed=1.01x elapsed=0:01:14.76    frame= 1819 fps= 24 q=-1.0 size=N/A time=00:01:15.78 bitrate=N/A speed=1.01x elapsed=0:01:15.27    frame= 1832 fps= 24 q=-1.0 size=N/A time=00:01:16.28 bitrate=N/A speed=1.01x elapsed=0:01:15.79    frame= 1844 fps= 24 q=-1.0 size=N/A time=00:01:16.82 bitrate=N/A speed=1.01x elapsed=0:01:16.30    frame= 1857 fps= 24 q=-1.0 size=N/A time=00:01:17.32 bitrate=N/A speed=1.01x elapsed=0:01:16.82    frame= 1868 fps= 24 q=-1.0 size=N/A time=00:01:17.82 bitrate=N/A speed=1.01x elapsed=0:01:17.34    frame= 1881 fps= 24 q=-1.0 size=N/A time=00:01:18.36 bitrate=N/A speed=1.01x elapsed=0:01:17.85    frame= 1893 fps= 24 q=-1.0 size=N/A time=00:01:18.86 bitrate=N/A speed=1.01x elapsed=0:01:18.37    frame= 1906 fps= 24 q=-1.0 size=N/A time=00:01:19.40 bitrate=N/A speed=1.01x elapsed=0:01:18.88    frame= 1918 fps= 24 q=-1.0 size=N/A time=00:01:19.90 bitrate=N/A speed=1.01x elapsed=0:01:19.40    frame= 1930 fps= 24 q=-1.0 size=N/A time=00:01:20.40 bitrate=N/A speed=1.01x elapsed=0:01:19.91    frame= 1943 fps= 24 q=-1.0 size=N/A time=00:01:20.90 bitrate=N/A speed=1.01x elapsed=0:01:20.43    frame= 1955 fps= 24 q=-1.0 size=N/A time=00:01:21.44 bitrate=N/A speed=1.01x elapsed=0:01:20.95    frame= 1968 fps= 24 q=-1.0 size=N/A time=00:01:21.94 bitrate=N/A speed=1.01x elapsed=0:01:21.47    frame= 1980 fps= 24 q=-1.0 size=N/A time=00:01:22.44 bitrate=N/A speed=1.01x elapsed=0:01:21.97    frame= 1992 fps= 24 q=-1.0 size=N/A time=00:01:23.00 bitrate=N/A speed=1.01x elapsed=0:01:22.49    [https @ 000001e9b8f77180] Opening 'https://tv.vodu.me:1995/kass/kass2/tracks-v1a1/2025/08/04/19/57/00-10420.ts' for reading
[hls @ 000001e9b96a4f40] Opening 'live\channel_3\stream7.ts' for writing
[hls @ 000001e9b96a4f40] Opening 'live\channel_3\stream.m3u8.tmp' for writing
frame= 2004 fps= 24 q=-1.0 size=N/A time=00:01:23.50 bitrate=N/A speed=1.01x elapsed=0:01:23.00    frame= 2017 fps= 24 q=-1.0 size=N/A time=00:01:24.04 bitrate=N/A speed=1.01x elapsed=0:01:23.52    frame= 2029 fps= 24 q=-1.0 size=N/A time=00:01:24.54 bitrate=N/A speed=1.01x elapsed=0:01:24.03    frame= 2041 fps= 24 q=-1.0 size=N/A time=00:01:25.04 bitrate=N/A speed=1.01x elapsed=0:01:24.55    frame= 2054 fps= 24 q=-1.0 size=N/A time=00:01:25.58 bitrate=N/A speed=1.01x elapsed=0:01:25.06    frame= 2066 fps= 24 q=-1.0 size=N/A time=00:01:26.08 bitrate=N/A speed=1.01x elapsed=0:01:25.58    frame= 2079 fps= 24 q=-1.0 size=N/A time=00:01:26.62 bitrate=N/A speed=1.01x elapsed=0:01:26.10    frame= 2091 fps= 24 q=-1.0 size=N/A time=00:01:27.12 bitrate=N/A speed=1.01x elapsed=0:01:26.61    frame= 2104 fps= 24 q=-1.0 size=N/A time=00:01:27.62 bitrate=N/A speed=1.01x elapsed=0:01:27.13    frame= 2116 fps= 24 q=-1.0 size=N/A time=00:01:28.16 bitrate=N/A speed=1.01x elapsed=0:01:27.64    frame= 2128 fps= 24 q=-1.0 size=N/A time=00:01:28.66 bitrate=N/A speed=1.01x elapsed=0:01:28.16    frame= 2141 fps= 24 q=-1.0 size=N/A time=00:01:29.20 bitrate=N/A speed=1.01x elapsed=0:01:28.67    frame= 2153 fps= 24 q=-1.0 size=N/A time=00:01:29.70 bitrate=N/A speed=1.01x elapsed=0:01:29.19    frame= 2166 fps= 24 q=-1.0 size=N/A time=00:01:30.24 bitrate=N/A speed=1.01x elapsed=0:01:29.71    frame= 2178 fps= 24 q=-1.0 size=N/A time=00:01:30.74 bitrate=N/A speed=1.01x elapsed=0:01:30.22    frame= 2190 fps= 24 q=-1.0 size=N/A time=00:01:31.24 bitrate=N/A speed=1.01x elapsed=0:01:30.74    frame= 2203 fps= 24 q=-1.0 size=N/A time=00:01:31.78 bitrate=N/A speed=1.01x elapsed=0:01:31.25    frame= 2215 fps= 24 q=-1.0 size=N/A time=00:01:32.28 bitrate=N/A speed=1.01x elapsed=0:01:31.77    frame= 2228 fps= 24 q=-1.0 size=N/A time=00:01:32.78 bitrate=N/A speed=1.01x elapsed=0:01:32.28    frame= 2239 fps= 24 q=-1.0 size=N/A time=00:01:33.28 bitrate=N/A speed=1.01x elapsed=0:01:32.80    [https @ 000001e9b8e75540] Opening 'https://tv.vodu.me:1995/kass/kass2/tracks-v1a1/mono.m3u8' for reading
[https @ 000001e9b8a6a200] Opening 'https://tv.vodu.me:1995/kass/kass2/tracks-v1a1/2025/08/04/19/57/11-10420.ts' for reading
[hls @ 000001e9b96a4f40] Opening 'live\channel_3\stream8.ts' for writing
[hls @ 000001e9b96a4f40] Opening 'live\channel_3\stream.m3u8.tmp' for writing
frame= 2252 fps= 24 q=-1.0 size=N/A time=00:01:33.82 bitrate=N/A speed=1.01x elapsed=0:01:33.31    frame= 2265 fps= 24 q=-1.0 size=N/A time=00:01:34.36 bitrate=N/A speed=1.01x elapsed=0:01:33.83    frame= 2277 fps= 24 q=-1.0 size=N/A time=00:01:34.86 bitrate=N/A speed=1.01x elapsed=0:01:34.35    frame= 2289 fps= 24 q=-1.0 size=N/A time=00:01:35.36 bitrate=N/A speed=1.01x elapsed=0:01:34.86    frame= 2301 fps= 24 q=-1.0 size=N/A time=00:01:35.86 bitrate=N/A speed=1.01x elapsed=0:01:35.38    frame= 2314 fps= 24 q=-1.0 size=N/A time=00:01:36.40 bitrate=N/A speed=1.01x elapsed=0:01:35.89    frame= 2326 fps= 24 q=-1.0 size=N/A time=00:01:36.90 bitrate=N/A speed=1.01x elapsed=0:01:36.41    frame= 2338 fps= 24 q=-1.0 size=N/A time=00:01:37.40 bitrate=N/A speed=   1x elapsed=0:01:36.94    frame= 2351 fps= 24 q=-1.0 size=N/A time=00:01:37.94 bitrate=N/A speed=1.01x elapsed=0:01:37.44    frame= 2363 fps= 24 q=-1.0 size=N/A time=00:01:38.44 bitrate=N/A speed=   1x elapsed=0:01:37.96    frame= 2376 fps= 24 q=-1.0 size=N/A time=00:01:39.00 bitrate=N/A speed=1.01x elapsed=0:01:38.48    frame= 2388 fps= 24 q=-1.0 size=N/A time=00:01:39.50 bitrate=N/A speed=1.01x elapsed=0:01:38.99    frame= 2400 fps= 24 q=-1.0 size=N/A time=00:01:40.00 bitrate=N/A speed=   1x elapsed=0:01:39.50    frame= 2413 fps= 24 q=-1.0 size=N/A time=00:01:40.54 bitrate=N/A speed=1.01x elapsed=0:01:40.02    frame= 2425 fps= 24 q=-1.0 size=N/A time=00:01:41.04 bitrate=N/A speed=   1x elapsed=0:01:40.54    frame= 2438 fps= 24 q=-1.0 size=N/A time=00:01:41.58 bitrate=N/A speed=1.01x elapsed=0:01:41.06    frame= 2450 fps= 24 q=-1.0 size=N/A time=00:01:42.08 bitrate=N/A speed=   1x elapsed=0:01:41.57    frame= 2462 fps= 24 q=-1.0 size=N/A time=00:01:42.58 bitrate=N/A speed=   1x elapsed=0:01:42.09    frame= 2474 fps= 24 q=-1.0 size=N/A time=00:01:43.08 bitrate=N/A speed=   1x elapsed=0:01:42.60    frame= 2487 fps= 24 q=-1.0 size=N/A time=00:01:43.62 bitrate=N/A speed=   1x elapsed=0:01:43.12    frame= 2500 fps= 24 q=-1.0 size=N/A time=00:01:44.16 bitrate=N/A speed=1.01x elapsed=0:01:43.63    [hls @ 000001e9b96a4f40] Opening 'live\channel_3\stream9.ts' for writing
[hls @ 000001e9b96a4f40] Opening 'live\channel_3\stream.m3u8.tmp' for writing
[https @ 000001e9b8e75540] Opening 'https://tv.vodu.me:1995/kass/kass2/tracks-v1a1/mono.m3u8' for reading
[https @ 000001e9b8f77180] Opening 'https://tv.vodu.me:1995/kass/kass2/tracks-v1a1/2025/08/04/19/57/21-10420.ts' for reading
frame= 2512 fps= 24 q=-1.0 size=N/A time=00:01:44.66 bitrate=N/A speed=   1x elapsed=0:01:44.15    frame= 2525 fps= 24 q=-1.0 size=N/A time=00:01:45.16 bitrate=N/A speed=   1x elapsed=0:01:44.66    frame= 2537 fps= 24 q=-1.0 size=N/A time=00:01:45.66 bitrate=N/A speed=   1x elapsed=0:01:45.18    frame= 2549 fps= 24 q=-1.0 size=N/A time=00:01:46.20 bitrate=N/A speed=   1x elapsed=0:01:45.70    frame= 2561 fps= 24 q=-1.0 size=N/A time=00:01:46.70 bitrate=N/A speed=   1x elapsed=0:01:46.21    frame= 2574 fps= 24 q=-1.0 size=N/A time=00:01:47.24 bitrate=N/A speed=   1x elapsed=0:01:46.73    frame= 2587 fps= 24 q=-1.0 size=N/A time=00:01:47.74 bitrate=N/A speed=   1x elapsed=0:01:47.24    frame= 2599 fps= 24 q=-1.0 size=N/A time=00:01:48.24 bitrate=N/A speed=   1x elapsed=0:01:47.76    frame= 2611 fps= 24 q=-1.0 size=N/A time=00:01:48.78 bitrate=N/A speed=   1x elapsed=0:01:48.27    frame= 2623 fps= 24 q=-1.0 size=N/A time=00:01:49.28 bitrate=N/A speed=   1x elapsed=0:01:48.79    frame= 2636 fps= 24 q=-1.0 size=N/A time=00:01:49.82 bitrate=N/A speed=   1x elapsed=0:01:49.31    frame= 2648 fps= 24 q=-1.0 size=N/A time=00:01:50.32 bitrate=N/A speed=   1x elapsed=0:01:49.82    frame= 2661 fps= 24 q=-1.0 size=N/A time=00:01:50.82 bitrate=N/A speed=   1x elapsed=0:01:50.34    frame= 2673 fps= 24 q=-1.0 size=N/A time=00:01:51.36 bitrate=N/A speed=   1x elapsed=0:01:50.85    frame= 2685 fps= 24 q=-1.0 size=N/A time=00:01:51.86 bitrate=N/A speed=   1x elapsed=0:01:51.37    frame= 2698 fps= 24 q=-1.0 size=N/A time=00:01:52.40 bitrate=N/A speed=   1x elapsed=0:01:51.88    frame= 2710 fps= 24 q=-1.0 size=N/A time=00:01:52.90 bitrate=N/A speed=   1x elapsed=0:01:52.40    frame= 2722 fps= 24 q=-1.0 size=N/A time=00:01:53.40 bitrate=N/A speed=   1x elapsed=0:01:52.92    frame= 2735 fps= 24 q=-1.0 size=N/A time=00:01:53.94 bitrate=N/A speed=   1x elapsed=0:01:53.42    frame= 2747 fps= 24 q=-1.0 size=N/A time=00:01:54.44 bitrate=N/A speed=   1x elapsed=0:01:53.94    [https @ 000001e9b8e75540] Opening 'https://tv.vodu.me:1995/kass/kass2/tracks-v1a1/mono.m3u8' for reading
[https @ 000001e9b8a6a200] Opening 'https://tv.vodu.me:1995/kass/kass2/tracks-v1a1/2025/08/04/19/57/31-03360.ts' for reading
[hls @ 000001e9b96a4f40] Opening 'live\channel_3\stream10.ts' for writing
[hls @ 000001e9b96a4f40] Opening 'live\channel_3\stream.m3u8.tmp' for writing
frame= 2760 fps= 24 q=-1.0 size=N/A time=00:01:54.94 bitrate=N/A speed=   1x elapsed=0:01:54.46    frame= 2771 fps= 24 q=-1.0 size=N/A time=00:01:55.44 bitrate=N/A speed=   1x elapsed=0:01:54.98    frame= 2784 fps= 24 q=-1.0 size=N/A time=00:01:56.00 bitrate=N/A speed=   1x elapsed=0:01:55.49    frame= 2796 fps= 24 q=-1.0 size=N/A time=00:01:56.50 bitrate=N/A speed=   1x elapsed=0:01:56.00    frame= 2809 fps= 24 q=-1.0 size=N/A time=00:01:57.04 bitrate=N/A speed=   1x elapsed=0:01:56.52    frame= 2822 fps= 24 q=-1.0 size=N/A time=00:01:57.54 bitrate=N/A speed=   1x elapsed=0:01:57.05    frame= 2833 fps= 24 q=-1.0 size=N/A time=00:01:58.04 bitrate=N/A speed=   1x elapsed=0:01:57.55    frame= 2846 fps= 24 q=-1.0 size=N/A time=00:01:58.58 bitrate=N/A speed=   1x elapsed=0:01:58.07    frame= 2858 fps= 24 q=-1.0 size=N/A time=00:01:59.08 bitrate=N/A speed=   1x elapsed=0:01:58.59    frame= 2871 fps= 24 q=-1.0 size=N/A time=00:01:59.62 bitrate=N/A speed=   1x elapsed=0:01:59.10    frame= 2883 fps= 24 q=-1.0 size=N/A time=00:02:00.12 bitrate=N/A speed=   1x elapsed=0:01:59.62    frame= 2895 fps= 24 q=-1.0 size=N/A time=00:02:00.62 bitrate=N/A speed=   1x elapsed=0:02:00.13    frame= 2907 fps= 24 q=-1.0 size=N/A time=00:02:01.12 bitrate=N/A speed=   1x elapsed=0:02:00.65    frame= 2920 fps= 24 q=-1.0 size=N/A time=00:02:01.66 bitrate=N/A speed=   1x elapsed=0:02:01.16    frame= 2933 fps= 24 q=-1.0 size=N/A time=00:02:02.20 bitrate=N/A speed=   1x elapsed=0:02:01.68    frame= 2945 fps= 24 q=-1.0 size=N/A time=00:02:02.70 bitrate=N/A speed=   1x elapsed=0:02:02.19    frame= 2958 fps= 24 q=-1.0 size=N/A time=00:02:03.20 bitrate=N/A speed=   1x elapsed=0:02:02.71    frame= 2969 fps= 24 q=-1.0 size=N/A time=00:02:03.70 bitrate=N/A speed=   1x elapsed=0:02:03.23    frame= 2982 fps= 24 q=-1.0 size=N/A time=00:02:04.24 bitrate=N/A speed=   1x elapsed=0:02:03.74    frame= 2995 fps= 24 q=-1.0 size=N/A time=00:02:04.78 bitrate=N/A speed=   1x elapsed=0:02:04.26    [https @ 000001e9b8e75540] Opening 'https://tv.vodu.me:1995/kass/kass2/tracks-v1a1/mono.m3u8' for reading
[https @ 000001e9b8f77180] Opening 'https://tv.vodu.me:1995/kass/kass2/tracks-v1a1/2025/08/04/19/59/39-10400.ts' for reading
[hls @ 000001e9b96a4f40] Opening 'live\channel_3\stream11.ts' for writing
[hls @ 000001e9b96a4f40] Opening 'live\channel_3\stream.m3u8.tmp' for writing
frame= 3007 fps= 24 q=-1.0 size=N/A time=00:02:05.28 bitrate=N/A speed=   1x elapsed=0:02:04.77    frame= 3019 fps= 24 q=-1.0 size=N/A time=00:02:05.78 bitrate=N/A speed=   1x elapsed=0:02:05.29    frame= 3032 fps= 24 q=-1.0 size=N/A time=00:02:06.32 bitrate=N/A speed=   1x elapsed=0:02:05.80    frame= 3044 fps= 24 q=-1.0 size=N/A time=00:02:06.82 bitrate=N/A speed=   1x elapsed=0:02:06.33    frame= 3056 fps= 24 q=-1.0 size=N/A time=00:02:07.32 bitrate=N/A speed=   1x elapsed=0:02:06.83    frame= 3069 fps= 24 q=-1.0 size=N/A time=00:02:07.86 bitrate=N/A speed=   1x elapsed=0:02:07.35    frame= 3080 fps= 24 q=-1.0 size=N/A time=00:02:08.32 bitrate=N/A speed=   1x elapsed=0:02:07.86    [https @ 000001e9b8a6a200] Opening 'https://tv.vodu.me:1995/kass/kass2/tracks-v1a1/2025/08/04/19/59/49-10420.ts' for reading
[aist#0:1/aac @ 000001e9b96a4d80] timestamp discontinuity (stream id=0): 123812481, new offset= -123812481
[hls @ 000001e9b96a4f40] Opening 'live\channel_3\stream12.ts' for writing
[hls @ 000001e9b96a4f40] Opening 'live\channel_3\stream.m3u8.tmp' for writing
frame= 3092 fps= 24 q=-1.0 size=N/A time=00:02:08.87 bitrate=N/A speed=   1x elapsed=0:02:08.38    frame= 3104 fps= 24 q=-1.0 size=N/A time=00:02:09.37 bitrate=N/A speed=   1x elapsed=0:02:08.90    frame= 3117 fps= 24 q=-1.0 size=N/A time=00:02:09.93 bitrate=N/A speed=   1x elapsed=0:02:09.41    frame= 3130 fps= 24 q=-1.0 size=N/A time=00:02:10.43 bitrate=N/A speed=   1x elapsed=0:02:09.93    frame= 3141 fps= 24 q=-1.0 size=N/A time=00:02:10.93 bitrate=N/A speed=   1x elapsed=0:02:10.44    frame= 3154 fps= 24 q=-1.0 size=N/A time=00:02:11.47 bitrate=N/A speed=   1x elapsed=0:02:10.96    frame= 3166 fps= 24 q=-1.0 size=N/A time=00:02:11.97 bitrate=N/A speed=   1x elapsed=0:02:11.47    frame= 3179 fps= 24 q=-1.0 size=N/A time=00:02:12.51 bitrate=N/A speed=   1x elapsed=0:02:11.99    frame= 3191 fps= 24 q=-1.0 size=N/A time=00:02:13.01 bitrate=N/A speed=   1x elapsed=0:02:12.51    frame= 3204 fps= 24 q=-1.0 size=N/A time=00:02:13.51 bitrate=N/A speed=   1x elapsed=0:02:13.02    frame= 3216 fps= 24 q=-1.0 size=N/A time=00:02:14.05 bitrate=N/A speed=   1x elapsed=0:02:13.54    frame= 3228 fps= 24 q=-1.0 size=N/A time=00:02:14.55 bitrate=N/A speed=   1x elapsed=0:02:14.05    frame= 3241 fps= 24 q=-1.0 size=N/A time=00:02:15.09 bitrate=N/A speed=   1x elapsed=0:02:14.57    frame= 3253 fps= 24 q=-1.0 size=N/A time=00:02:15.59 bitrate=N/A speed=   1x elapsed=0:02:15.08    frame= 3265 fps= 24 q=-1.0 size=N/A time=00:02:16.09 bitrate=N/A speed=   1x elapsed=0:02:15.60    frame= 3278 fps= 24 q=-1.0 size=N/A time=00:02:16.63 bitrate=N/A speed=   1x elapsed=0:02:16.12    frame= 3290 fps= 24 q=-1.0 size=N/A time=00:02:17.13 bitrate=N/A speed=   1x elapsed=0:02:16.63    frame= 3303 fps= 24 q=-1.0 size=N/A time=00:02:17.63 bitrate=N/A speed=   1x elapsed=0:02:17.15    frame= 3315 fps= 24 q=-1.0 size=N/A time=00:02:18.17 bitrate=N/A speed=   1x elapsed=0:02:17.66    frame= 3328 fps= 24 q=-1.0 size=N/A time=00:02:18.67 bitrate=N/A speed=   1x elapsed=0:02:18.18    [https @ 000001e9b8e75540] Opening 'https://tv.vodu.me:1995/kass/kass2/tracks-v1a1/mono.m3u8' for reading
[https @ 000001e9b8f77180] Opening 'https://tv.vodu.me:1995/kass/kass2/tracks-v1a1/2025/08/04/19/59/59-10420.ts' for reading
[hls @ 000001e9b96a4f40] Opening 'live\channel_3\stream13.ts' for writing
[hls @ 000001e9b96a4f40] Opening 'live\channel_3\stream.m3u8.tmp' for writing
frame= 3340 fps= 24 q=-1.0 size=N/A time=00:02:19.21 bitrate=N/A speed=   1x elapsed=0:02:18.69    frame= 3352 fps= 24 q=-1.0 size=N/A time=00:02:19.71 bitrate=N/A speed=   1x elapsed=0:02:19.21    frame= 3365 fps= 24 q=-1.0 size=N/A time=00:02:20.21 bitrate=N/A speed=   1x elapsed=0:02:19.72    frame= 3377 fps= 24 q=-1.0 size=N/A time=00:02:20.75 bitrate=N/A speed=   1x elapsed=0:02:20.24    